<svg id="ePft7nFkxRU1" xmlns="http://www.w3.org/2000/svg" xmlns:xlink="http://www.w3.org/1999/xlink" viewBox="0 0 614.38 662.99" shape-rendering="geometricPrecision" text-rendering="geometricPrecision"><style><![CDATA[#ePft7nFkxRU2_to {animation: ePft7nFkxRU2_to__to 5000ms linear 1 normal forwards}@keyframes ePft7nFkxRU2_to__to { 0% {transform: translate(307.201477px,339.965317px)} 4% {transform: translate(307.201477px,339.965317px)} 44% {transform: translate(307.915852px,364.036799px)} 50% {transform: translate(306.898873px,315.893836px)} 56% {transform: translate(307.915852px,364.962625px)} 100% {transform: translate(307.915852px,364.962625px)}} #ePft7nFkxRU3_tr {animation: ePft7nFkxRU3_tr__tr 5000ms linear 1 normal forwards}@keyframes ePft7nFkxRU3_tr__tr { 0% {transform: translate(299.658633px,326.540001px) rotate(0deg)} 37.6% {transform: translate(299.658633px,326.540001px) rotate(0deg)} 44% {transform: translate(299.658633px,326.540001px) rotate(-5deg)} 52% {transform: translate(299.658633px,326.540001px) rotate(0deg)} 100% {transform: translate(299.658633px,326.540001px) rotate(0deg)}} #ePft7nFkxRU4_ts {animation: ePft7nFkxRU4_ts__ts 5000ms linear 1 normal forwards}@keyframes ePft7nFkxRU4_ts__ts { 0% {transform: translate(299.658633px,326.540001px) scale(0,0.5)} 10% {transform: translate(299.658633px,326.540001px) scale(0,0.5)} 24% {transform: translate(299.658633px,326.540001px) scale(1,1)} 100% {transform: translate(299.658633px,326.540001px) scale(1,1)}} #ePft7nFkxRU4 {animation: ePft7nFkxRU4_c_o 5000ms linear 1 normal forwards}@keyframes ePft7nFkxRU4_c_o { 0% {opacity: 0} 6% {opacity: 0} 20% {opacity: 1} 100% {opacity: 1}} #ePft7nFkxRU5_ts {animation: ePft7nFkxRU5_ts__ts 5000ms linear 1 normal forwards}@keyframes ePft7nFkxRU5_ts__ts { 0% {transform: translate(483.689939px,372.789613px) scale(0,0)} 16% {transform: translate(483.689939px,372.789613px) scale(0,0)} 34% {transform: translate(483.689939px,372.789613px) scale(1,1)} 100% {transform: translate(483.689939px,372.789613px) scale(1,1)}} #ePft7nFkxRU6_ts {animation: ePft7nFkxRU6_ts__ts 5000ms linear 1 normal forwards}@keyframes ePft7nFkxRU6_ts__ts { 0% {transform: translate(464.56px,280.039437px) scale(0,0)} 18% {transform: translate(464.56px,280.039437px) scale(0,0)} 28% {transform: translate(464.56px,280.039437px) scale(1,1)} 100% {transform: translate(464.56px,280.039437px) scale(1,1)}} #ePft7nFkxRU7_ts {animation: ePft7nFkxRU7_ts__ts 5000ms linear 1 normal forwards}@keyframes ePft7nFkxRU7_ts__ts { 0% {transform: translate(464.56px,280.460151px) scale(0,0)} 28% {transform: translate(464.56px,280.460151px) scale(0,0)} 40% {transform: translate(464.56px,280.460151px) scale(1,1)} 100% {transform: translate(464.56px,280.460151px) scale(1,1)}} #ePft7nFkxRU8_ts {animation: ePft7nFkxRU8_ts__ts 5000ms linear 1 normal forwards}@keyframes ePft7nFkxRU8_ts__ts { 0% {transform: translate(464.56px,280.470681px) scale(0,0)} 22% {transform: translate(464.56px,280.470681px) scale(0,0)} 36% {transform: translate(464.56px,280.470681px) scale(1,1)} 100% {transform: translate(464.56px,280.470681px) scale(1,1)}} #ePft7nFkxRU9_tr {animation: ePft7nFkxRU9_tr__tr 5000ms linear 1 normal forwards}@keyframes ePft7nFkxRU9_tr__tr { 0% {transform: translate(299.658633px,326.540001px) rotate(0deg)} 37.8% {transform: translate(299.658633px,326.540001px) rotate(0deg)} 44% {transform: translate(299.658633px,326.540001px) rotate(-5deg)} 52% {transform: translate(299.658633px,326.540001px) rotate(0deg)} 100% {transform: translate(299.658633px,326.540001px) rotate(0deg)}} #ePft7nFkxRU10_to {animation: ePft7nFkxRU10_to__to 5000ms linear 1 normal forwards}@keyframes ePft7nFkxRU10_to__to { 0% {transform: translate(209.658633px,326.54px)} 16% {transform: translate(209.658633px,326.54px)} 28% {transform: translate(299.658633px,326.54px)} 100% {transform: translate(299.658633px,326.54px)}} #ePft7nFkxRU10_tr {animation: ePft7nFkxRU10_tr__tr 5000ms linear 1 normal forwards}@keyframes ePft7nFkxRU10_tr__tr { 0% {transform: rotate(0deg)} 52% {transform: rotate(0deg)} 84% {transform: rotate(0deg)} 100% {transform: rotate(0deg)}} #ePft7nFkxRU10_ts {animation: ePft7nFkxRU10_ts__ts 5000ms linear 1 normal forwards}@keyframes ePft7nFkxRU10_ts__ts { 0% {transform: scale(0,0)} 12% {transform: scale(0,0)} 24% {transform: scale(1,1)} 100% {transform: scale(1,1)}} #ePft7nFkxRU10 {animation: ePft7nFkxRU10_c_o 5000ms linear 1 normal forwards}@keyframes ePft7nFkxRU10_c_o { 0% {opacity: 0} 20% {opacity: 0} 30% {opacity: 1} 100% {opacity: 1}} #ePft7nFkxRU11_ts {animation: ePft7nFkxRU11_ts__ts 5000ms linear 1 normal forwards}@keyframes ePft7nFkxRU11_ts__ts { 0% {transform: translate(150.75px,356.703338px) scale(0,0)} 24% {transform: translate(150.75px,356.703338px) scale(0,0)} 38% {transform: translate(150.75px,356.703338px) scale(1,1)} 100% {transform: translate(150.75px,356.703338px) scale(1,1)}} #ePft7nFkxRU12_ts {animation: ePft7nFkxRU12_ts__ts 5000ms linear 1 normal forwards}@keyframes ePft7nFkxRU12_ts__ts { 0% {transform: translate(139.700077px,297.444587px) scale(0,0)} 24% {transform: translate(139.700077px,297.444587px) scale(0,0)} 36% {transform: translate(139.700077px,297.444587px) scale(1,1)} 100% {transform: translate(139.700077px,297.444587px) scale(1,1)}} #ePft7nFkxRU13_ts {animation: ePft7nFkxRU13_ts__ts 5000ms linear 1 normal forwards}@keyframes ePft7nFkxRU13_ts__ts { 0% {transform: translate(139.700077px,297.444587px) scale(0,0)} 34% {transform: translate(139.700077px,297.444587px) scale(0,0)} 46% {transform: translate(139.700077px,297.444587px) scale(1,1)} 100% {transform: translate(139.700077px,297.444587px) scale(1,1)}} #ePft7nFkxRU14_ts {animation: ePft7nFkxRU14_ts__ts 5000ms linear 1 normal forwards}@keyframes ePft7nFkxRU14_ts__ts { 0% {transform: translate(344.777425px,496.117402px) scale(0,0)} 24% {transform: translate(344.777425px,496.117402px) scale(0,0)} 34% {transform: translate(344.777425px,496.117402px) scale(1,1)} 100% {transform: translate(344.777425px,496.117402px) scale(1,1)}} #ePft7nFkxRU15_ts {animation: ePft7nFkxRU15_ts__ts 5000ms linear 1 normal forwards}@keyframes ePft7nFkxRU15_ts__ts { 0% {transform: translate(386.001711px,485.256621px) scale(0,0)} 26% {transform: translate(386.001711px,485.256621px) scale(0,0)} 34% {transform: translate(386.001711px,485.256621px) scale(1,1)} 100% {transform: translate(386.001711px,485.256621px) scale(1,1)}} #ePft7nFkxRU16_ts {animation: ePft7nFkxRU16_ts__ts 5000ms linear 1 normal forwards}@keyframes ePft7nFkxRU16_ts__ts { 0% {transform: translate(418.188603px,463.632537px) scale(0,0)} 28% {transform: translate(418.188603px,463.632537px) scale(0,0)} 38% {transform: translate(418.188603px,463.632537px) scale(1,1)} 100% {transform: translate(418.188603px,463.632537px) scale(1,1)}} #ePft7nFkxRU17_ts {animation: ePft7nFkxRU17_ts__ts 5000ms linear 1 normal forwards}@keyframes ePft7nFkxRU17_ts__ts { 0% {transform: translate(437.535099px,430.200774px) scale(0,0)} 30% {transform: translate(437.535099px,430.200774px) scale(0,0)} 38% {transform: translate(437.535099px,430.200774px) scale(1,1)} 100% {transform: translate(437.535099px,430.200774px) scale(1,1)}} #ePft7nFkxRU18_ts {animation: ePft7nFkxRU18_ts__ts 5000ms linear 1 normal forwards}@keyframes ePft7nFkxRU18_ts__ts { 0% {transform: translate(139.700077px,297.444587px) scale(0,0)} 32% {transform: translate(139.700077px,297.444587px) scale(0,0)} 46% {transform: translate(139.700077px,297.444587px) scale(1,1)} 100% {transform: translate(139.700077px,297.444587px) scale(1,1)}} #ePft7nFkxRU19_ts {animation: ePft7nFkxRU19_ts__ts 5000ms linear 1 normal forwards}@keyframes ePft7nFkxRU19_ts__ts { 0% {transform: translate(186.626862px,126.4px) scale(1,0)} 40% {transform: translate(186.626862px,126.4px) scale(1,0)} 50% {transform: translate(186.626862px,126.4px) scale(1,1)} 100% {transform: translate(186.626862px,126.4px) scale(1,1)}} #ePft7nFkxRU20_ts {animation: ePft7nFkxRU20_ts__ts 5000ms linear 1 normal forwards}@keyframes ePft7nFkxRU20_ts__ts { 0% {transform: translate(315.0546px,126.4px) scale(1,0)} 42% {transform: translate(315.0546px,126.4px) scale(1,0)} 52% {transform: translate(315.0546px,126.4px) scale(1,1)} 100% {transform: translate(315.0546px,126.4px) scale(1,1)}} #ePft7nFkxRU21_ts {animation: ePft7nFkxRU21_ts__ts 5000ms linear 1 normal forwards}@keyframes ePft7nFkxRU21_ts__ts { 0% {transform: translate(445.771875px,126.4px) scale(1,0)} 44% {transform: translate(445.771875px,126.4px) scale(1,0)} 54% {transform: translate(445.771875px,126.4px) scale(1,1)} 100% {transform: translate(445.771875px,126.4px) scale(1,1)}} #ePft7nFkxRU22_ts {animation: ePft7nFkxRU22_ts__ts 5000ms linear 1 normal forwards}@keyframes ePft7nFkxRU22_ts__ts { 0% {transform: translate(96.352651px,553.054963px) scale(1,0)} 46% {transform: translate(96.352651px,553.054963px) scale(1,0)} 54% {transform: translate(96.352651px,553.054963px) scale(1,1)} 100% {transform: translate(96.352651px,553.054963px) scale(1,1)}} #ePft7nFkxRU23_ts {animation: ePft7nFkxRU23_ts__ts 5000ms linear 1 normal forwards}@keyframes ePft7nFkxRU23_ts__ts { 0% {transform: translate(200.21754px,553.054963px) scale(1,0)} 48% {transform: translate(200.21754px,553.054963px) scale(1,0)} 56% {transform: translate(200.21754px,553.054963px) scale(1,1)} 100% {transform: translate(200.21754px,553.054963px) scale(1,1)}} #ePft7nFkxRU24_ts {animation: ePft7nFkxRU24_ts__ts 5000ms linear 1 normal forwards}@keyframes ePft7nFkxRU24_ts__ts { 0% {transform: translate(320.765px,555.64px) scale(1,0)} 50% {transform: translate(320.765px,555.64px) scale(1,0)} 58% {transform: translate(320.765px,555.64px) scale(1,1)} 100% {transform: translate(320.765px,555.64px) scale(1,1)}} #ePft7nFkxRU25_ts {animation: ePft7nFkxRU25_ts__ts 5000ms linear 1 normal forwards}@keyframes ePft7nFkxRU25_ts__ts { 0% {transform: translate(428.969812px,553.054963px) scale(1,0)} 52% {transform: translate(428.969812px,553.054963px) scale(1,0)} 60% {transform: translate(428.969812px,553.054963px) scale(1,1)} 100% {transform: translate(428.969812px,553.054963px) scale(1,1)}} #ePft7nFkxRU26_ts {animation: ePft7nFkxRU26_ts__ts 5000ms linear 1 normal forwards}@keyframes ePft7nFkxRU26_ts__ts { 0% {transform: translate(528.4621px,555.64px) scale(1,0)} 52% {transform: translate(528.4621px,555.64px) scale(1,0)} 62% {transform: translate(528.4621px,555.64px) scale(1,1)} 100% {transform: translate(528.4621px,555.64px) scale(1,1)}}]]></style><g id="ePft7nFkxRU2_to" transform="translate(307.201477,339.965317)"><g transform="translate(-307.201477,-339.965317)"><g id="ePft7nFkxRU3_tr" transform="translate(299.658633,326.540001) rotate(0)"><g transform="translate(-299.658628,-326.540001)"><g id="ePft7nFkxRU4_ts" transform="translate(299.658633,326.540001) scale(0,0.5)"><path id="ePft7nFkxRU4" d="M398.25,549.66l97.55-63.58c1.531442-.990566,3.316122-1.518331,5.14-1.52v0c1.732784-.00285,3.432419.474848,4.91,1.38l64.68,39.51c1.686926,1.03043,3.583459,1.669442,5.55,1.87c5.62.56,16.8.11,22.15-11.06c5.93-12.38,1-22.17-5.45-27.62-5.65-4.76-41.52-27.49-50.42-33.12-.359549-.224523-.554507-.638622-.498484-1.058798s.352669-.768727.758484-.891202c6.06-1.78,22.82-6.46,32.46-6.46s14.48,1.82,15.88,2.48c.309401.178633.690599.178633,1,0L647,420.37c.517177-.277123,1.161001-.090636,1.45.42l61.6,109.14c.287118.514317.109166,1.163843-.4,1.46L640.15,572c-.429008.250845-.973819.176553-1.32-.18l-12.61-12.94-.16-.13c-1.21-.83-15.69-10.52-24.49-3-6.61,5.63-8.61,11.79-9.21,14.82-.068793.369564-.326472.675921-.678785.807015s-.747577.067691-1.041215-.167015c-4.3-3.44-17.26-12.31-28.18-4.22-7.27,5.38-9,14.35-9.4,17.56-.037963.297817-.199298.565985-.444627.739046s-.552077.235093-.845373.170954c-3.78-.79-15.66-2.74-21.63,2.66-6.73,6.09-10.75,17-8.91,24.81.07484.31297.00622.643011-.187165.900214s-.491392.414773-.812835.429786c-3.24,0-11.21.72-16.26,7.9-6.47,9.19-5.45,16,.34,23.15c2.093683,2.667798,4.351381,5.202698,6.76,7.59.248514.224963.377239.553388.347776.887304s-.213709.634725-.497776.812696l-16.77,10.76-.11.06c-.89.43-11.71,5.34-16.6-3.79-5.11-9.54-2.4-18.32,4.4-23.43s10.09-8.36,7.09-11.21c-2.21-2.1-8.79,1-16.62,6.74s-14.64,10.21-14.64,10.21-10.89,6.81-18.72-5.12c-7.17-10.94-2.34-18.66,5.83-24.45s31.36-18.89,32.38-21.62-1-6.89-7.78-2.81c-6.6,4-36,21.87-37.83,23-.058118.039959-.122265.070345-.19.09-1.31.45-15.12,4.89-20-5.48-5.11-10.89-1.93-16.8,6.51-22.81c9-6.44,31.92-21.23,33.25-22.09l.12-.09c.54-.49,4.61-4.33,3.18-6.24-.81-1.09-1.87-2.91-6.87-.87-3.91,1.6-11,6.34-17.13,10.52-14,9.54-28.6,21.83-39.15,8.22s6.98-24.53,6.98-24.53Z" transform="translate(-504.098627,-497.319999)" opacity="0" fill="#d1ca52" stroke-linecap="square"/></g><g id="ePft7nFkxRU5_ts" transform="translate(483.689939,372.789613) scale(0,0)"><polygon points="507.13,362.8 507.13,372.69 479.92,387.65 471.41,383.59 507.13,362.8" transform="translate(-483.689939,-372.789613)" fill="#d1ca52"/></g><g id="ePft7nFkxRU6_ts" transform="translate(464.56,280.039437) scale(0,0)"><polygon points="448.6,246.54 460.34,239.91 497.11,306.29 486.13,312.16 448.6,246.54" transform="translate(-464.56,-280.039437)" fill="#d1ca52"/></g><g id="ePft7nFkxRU7_ts" transform="translate(464.56,280.460151) scale(0,0)"><path d="M769,374.73l31-17.42c1.392589-.78361,3.040227-.979358,4.577653-.543847s2.837621,1.466296,3.612347,2.863847l9.91,17.89c1.605091,2.891767.567407,6.537079-2.32,8.15L785,402.82Z" transform="translate(-668.999999,-451.24015)" fill="#d1ca52"/></g><g id="ePft7nFkxRU8_ts" transform="translate(464.56,280.470681) scale(0,0)"><path d="M669,407.32l72.44-40.72c3.254139-1.851884,7.114478-2.323117,10.718543-1.308416s6.651502,3.430771,8.461457,6.708416l23.15,41.81c3.731224,6.747991,1.303519,15.242723-5.43,19l-71.77,40.06Zm21.85-.46c-3.168756-.004044-6.027557,1.90219-7.242057,4.828967s-.545233,6.297022,1.695417,8.537673s5.610897,2.909916,8.537673,1.695417s4.833011-4.073301,4.828967-7.242057c.000056-4.303294-3.476762-7.797988-7.78-7.82Zm11.47,18.36c-4.317561.005521-7.813677,3.509095-7.809997,7.826658s3.505762,7.815173,7.823326,7.813335s7.816667-3.502429,7.816671-7.819993c.000032-4.307178-3.482854-7.803476-7.79-7.82Zm11.21,19c-4.318867,0-7.82,3.501133-7.82,7.82s3.501133,7.82,7.82,7.82s7.82-3.501133,7.82-7.82c-.016408-4.291586-3.488439-7.768079-7.78-7.79Z" transform="translate(-669,-451.250681)" fill="#d1ca52"/></g></g></g><g id="ePft7nFkxRU9_tr" transform="translate(299.658633,326.540001) rotate(0)"><g transform="translate(-299.658633,-326.540001)"><g id="ePft7nFkxRU10_to" transform="translate(209.658633,326.54)"><g id="ePft7nFkxRU10_tr" transform="rotate(0)"><g id="ePft7nFkxRU10_ts" transform="scale(0,0)"><path id="ePft7nFkxRU10" d="M508.29,481.67l65.09,41.86c0,0,12.62,1.77,19.62-7.91s.76-21.32-3.07-24.77-62.55-39.83-76.17-46-41.87-10-51.06-10.39-11.92,0-11.92,0l-50-37.95-77.27,104.22l66.21,49.53l102.83-68.47c4.75469-3.170674,10.93752-3.217811,15.74-.12Z" transform="translate(-504.098632,-497.32)" opacity="0" fill="#ededed"/></g></g></g><g id="ePft7nFkxRU11_ts" transform="translate(150.75,356.703338) scale(0,0)"><polygon points="117.7,333.69 117.7,341.86 143.06,361.78 150.75,358.03 117.7,333.69" transform="translate(-150.75,-356.703338)" fill="#ededed"/></g><g id="ePft7nFkxRU12_ts" transform="translate(139.700077,297.444587) scale(0,0)"><polygon points="103.58,318.2 114.3,326.54 160.6,264.76 150.19,256.44 103.58,318.2" transform="translate(-139.700075,-297.444586)" fill="#ededed"/></g><g id="ePft7nFkxRU13_ts" transform="translate(139.700077,297.444587) scale(0,0)"><path d="M234.57,404.05l20.68-26.81-28.66-21.66c-2.643128-1.994796-6.402594-1.471156-8.4,1.17l-12.54,16.61c-1.959548,2.580103-1.516873,6.249875,1,8.29Z" transform="translate(-344.140074,-468.224587)" fill="#ededed"/></g><g id="ePft7nFkxRU14_ts" transform="translate(344.777425,496.117402) scale(0,0)"><path d="M504.78,639.94c3.219264,4.95551,6.927856,9.575337,11.07,13.79c6.29,6.21,10.63,10.46,14.12,11.57s8.34,2,13.62-3.32s6.21-10.72,4.94-14.3-4.53-7.68-11.32-14.46-16.09-18.47-26.13-10.05-6.3,16.77-6.3,16.77Z" transform="translate(-549.217425,-666.897402)" fill="#ededed"/></g><g id="ePft7nFkxRU15_ts" transform="translate(386.001711,485.256621) scale(0,0)"><path d="M526.18,608.36c.237748,3.11396,1.557285,6.046658,3.73,8.29c6.21,6.42,21.42,22.11,26.38,27c6.3,6.21,8.64,10.47,12.13,11.58s11.34,2,16.62-3.32s6.21-12.73,4.93-16.3-2.51-6.66-9.32-13.47c-2.72-2.73-23.85-26.23-27.26-28.91-5.1-4-14.84-6.18-20.86-1.13s-6.7,11.62-6.35,16.26Z" transform="translate(-590.441711,-656.036621)" fill="#ededed"/></g><g id="ePft7nFkxRU16_ts" transform="translate(418.188603,463.632537) scale(0,0)"><path d="M558.37,586.74c.231292,3.118534,1.551602,6.056491,3.73,8.3c6.21,6.41,21.41,22.11,26.38,27c6.3,6.21,8.64,10.47,12.13,11.57s11.34,2,16.61-3.32s6.22-12.72,4.94-16.29-2.51-6.66-9.32-13.47c-2.73-2.73-23.85-26.23-27.26-28.92-5.1-4-14.85-6.17-20.87-1.12s-6.71,11.61-6.34,16.25Z" transform="translate(-622.628601,-634.412537)" fill="#ededed"/></g><g id="ePft7nFkxRU17_ts" transform="translate(437.535099,430.200774) scale(0,0)"><path d="M597.76,576.13c3.217688,4.953911,6.922795,9.57357,11.06,13.79c6.3,6.21,10.64,10.47,14.13,11.57s8.34,2,13.62-3.32s6.21-10.72,4.94-14.3-4.51-7.65-11.32-14.46-16.09-18.47-26.13-10-6.3,16.72-6.3,16.72Z" transform="translate(-641.975096,-600.980769)" fill="#ededed"/></g><g id="ePft7nFkxRU18_ts" transform="translate(139.700077,297.444587) scale(0,0)"><path d="M349.72,424.13L303.93,484.9l-68.17-52.22c-2.360795-1.813886-3.899787-4.495168-4.275298-7.44856s.443535-5.934489,2.275298-8.28144c54.83-70.81,27.93-54.07,115.96,7.18Zm-52.11,38.13c-.13,9.08,14.13,9.08,14,0c.14-9.08-14.13-9.08-14,0Zm24-31c-.13,9.08,14.13,9.08,14,0c.14-9.08-14.13-9.08-14,0Zm-12,15c-.13,9.08,14.13,9.08,14,0c.14-9.08-14.13-9.08-14,0Z" transform="translate(-344.140076,-468.224587)" fill="#ededed"/></g></g></g></g></g><g id="ePft7nFkxRU19_ts" transform="translate(186.626862,126.4) scale(1,0)"><path d="M367.71,297l-.86.18h-1.37l-3.61-.18-1.55-.17-3.79.17h-1.89l-1.72.18-3.27-.18c-.519168.027638-1.039361-.029786-1.54-.17l-2.07-.51h-4c-.663553-.03347-1.31188-.210907-1.9-.52-1.118531-.472041-2.03293-1.326188-2.58-2.41-.429064-.970152-.604556-2.033426-.51-3.09v-2.24l.17-2.06.17-4.48-.51-1.54-.35-2.93c-.113179-.919314-.055545-1.851626.17-2.75l.18-1.2v-3.79l.34-2.41-.17-4.47-.17-4.3.17-2.06-.17-2.07.34-3.26-.17-2.41-.52-3.61.17-2.24.18-4-.18-2.23-.17-2.24c-.028451-.803762.028535-1.608273.17-2.4l.18-.87-.18-4.3.35-1.89.51-4l.18-1.89.17-4.3-.17-2.07-.35-3.09c-.027963-.694351.029128-1.389515.17-2.07l.18-1.2-.35-3.44v-1.38l.17-1.2-.34-2.24c-.170278-1.08335-.170278-2.18665,0-3.27l.17-.17-.17-4-.17-2.07v-3.09c-.020392-.578352.036783-1.15683.17-1.72l.17-1.55.69-4v-1.37c.914983-1.196393,1.954113-2.292507,3.1-3.27.797223-.567763,1.779172-.814143,2.75-.69l2.75.34l2.58-.51l4.3.17h1.89l4.65-.17l2.06-.17l3.61.17h2.07l3.26-.17c.578577-.028366,1.15817.028919,1.72.17l1.21.17l2.06.34.86-.34c.839525-.231328,1.717381-.289171,2.58-.17l.86.17l4.3.52l1.89.51l4.3.17h1.89l1.72.18c1.234117.195758,2.409194.663739,3.44,1.37l.18.17h1.89l4.3,1.9l4.13,1.54l1.89.86l3.95,1.38l1.72.86.52.52l2.75,1.72c.59446.360269,1.119447.824289,1.55,1.37l.34.52l2.93,2.06l2.06,1.72l1.89,1.72c.52.52,1.21.86,1.55,1.38l.86,1.2l2.41,2.24c.333115.29039.622746.627169.86,1l1,1.38l1.55,1.89c.518542.705471.980004,1.451168,1.38,2.23l.34.69l1.89,3.44.69,1.72c.154528.258338.214613.562297.17.86l1,3.27.35,2.06l1,3.79.69,1.72.69,2.92c.132278.563326.189441,1.141678.17,1.72v1.2l.51,3.79v1.94l-.17,1l.35,1.72-.18,2.41.52,2.23-.17,4v1c-.014326.703449-.13226,1.400945-.35,2.07l-.51,1.54c-.19065.802521-.529823,1.562268-1,2.24l-.18.17-1.54,4.3-.35,1.89-1.55,3.79-.34,1.2-1.55,3.27-1.2,2.06-.69,1.21-2.41,4.13-2.47,3.77-1,1.2c-.17.35-.34.35-.69.69l-2.75,2.58-1.72,1.38-2.75,1.72c-.538389.351795-1.11553.640366-1.72.86l-.86.34-3.44,1.72-1.89,1-2.93,1.55c-.51.17-1,.52-1.55.69l-.34.17-4.3,1.89-2.06.86-2.76.86c-.773883.277313-1.580737.452131-2.4.52h-1l-1.72.17-2.06.69-.52.17c-.828206.335661-1.694806.567426-2.58.69l-2.4.17-2.58-.17-1.55.34-2.58.18-1.21.17c-.34,0-1.2-.17-1.54-.17l-1.21-.18h-2.06c-.997745.342476-2.045115.518164-3.1.52h-2.75Zm-.34-102h-1l-2.24,2.75-.69,2.07v3.78l.18,2.24.17,3.61.34,1.89v.52c.02813.976422-.028751,1.953439-.17,2.92l-.17.69.51,2.06v3.27c-.014325.643851-.129039,1.281523-.34,1.89l-.17.69-.35,4.13-.17,2.23.17,3.44c.09037.569772.09037,1.150228,0,1.72l-.34,1.55.17,4l.17,5l.35,1.38.17,4.3v2.06l.52,3.62c0,.51.17.86.17,1.2v.86l-.52,2.41.52,1.72v6.36l-.17,1.38v2.23l2.23,1.38l5.85.52c1.354401-.350157,2.775599-.350157,4.13,0l2.4-.52l1.9.17l4-.51l2.07-.86l4.47-.52l4.47-1.2l1.72-1l3.61-1.72l1-1.2l3.27-2.92l2.07-1.55l1.89-2.24c.476268-.500432.994861-.958802,1.55-1.37l.86-.52l1.89-4.13l1.89-4.47.52-1.38l1-4l.51-2.07-.17-3.44.17-2.4.35-2.41-.52-1.89.17-2.07.18-4.64-.86-4.47-.35-2.58-1.55-3.61-.86-1.72-2.4-2.76-1.55-1.72-3.1-2.92-1-1.2-2.92-2.76-1.38-.68-3.78-2.07-1.72-1-4.48-1.2-2.23-.86-4.52-1.46-4.3-.52-2.58.18-2.07-.18-3.61-.17-3.61.69c-.57018.085039-1.14982.085039-1.72,0Z" transform="translate(-391.066862,-297.18)" fill="#d1ca52"/></g><g id="ePft7nFkxRU20_ts" transform="translate(315.0546,126.4) scale(1,0)"><path d="M548,234.07h1.37c.35,0,.86.18,1.21.18l3.61.68l2.24-.51l3.61.51l2.06-.51c1.127844.930621,2.16574,1.965169,3.1,3.09.69.86.51,1.89.51,2.93v2.56l-.17,2.23.17,3.44c.028366.578577-.028919,1.15817-.17,1.72l-.51,3.27-.52,2.06-1,5.16-1.21,4.48-1.2,2.4-1.72,3.44-.86,1.55.17,3.27l1.72,1.55l2.24,2.92l1.54,1.21l2.76,3.78l2.75,2.75.52.52c.51.51,1.2,1,1.72,1.55l1.54,2.06l1.72,1c.813617.886991,1.01834,2.17438.52,3.27h-2.07l-2.06-.34-4.3.17h-.17c-1.143716.473681-2.372212.70849-3.61.69h-2.24l-2.58-.52-3.78-.17-1.72-.17c-1.355844.165001-2.731409-.013823-4-.52-1-.34-2.23-1.38-3.44-3.27l-.34-.86-1.55-2.06-3.44-.35-1.42,1.43-3.95,2.24-1.72.86-1.89,1c-1.023537.664019-2.219996,1.011828-3.44,1l-3.1,1.2c-.52.18-.86.18-1.55.35l-1.37.17-4,1-3.61.35h-1.55l-1.55-.18-1.72.35-2.41-.17-2.06.51h-2.92c-.63807.027854-1.27701-.029314-1.9-.17l-1.2-.34-3.61-1.21h-1.89l-3.27-1c-.35-.17-.86-.17-1.21-.34l-1-.52-3.95-1.55-1.72-.86-2.93-1.89-1.89-.86-2.75-2.06c-.35-.35-.69-.52-1-.86l-.52-.52-2.58-2.41c-.37454-.289409-.710591-.62546-1-1l-.69-1-2.24-2.58h-.17c-.969324-1.194559-1.619624-2.615583-1.89-4.13L464.2,274l-.34-2.24-.52-2.41c-.230737-1.013012-.288217-2.05779-.17-3.09l.17-.69-.34-1.89v-2.24l.34-1.72.18-2.41c.174172-1.132458.510981-2.233826,1-3.27l1.37-2.58l1.21-2.06l2.58-3.44.51-.86c.366476-.592902.83346-1.117413,1.38-1.55l2.75-2.23l2.24-2.41c.4871-.604997,1.067755-1.128261,1.72-1.55l.86-.34l4.13-2.93l1.72-1.55.34-2.4-1.2-1.38-1-1.55-2.4-3.44-1.21-2.06-2.23-2.92c-.269996-.379173-.50116-.784548-.69-1.21l-.52-.86-.69-3.27-.34-2.06-.34-2.06-.35-2.58c-.169939-.794346-.169939-1.615654,0-2.41l.17-.69-.17-2.06v-1.72l-.17-.69c.019323-.985296.133179-1.966462.34-2.93l.35-1.2c.207425-.774725.495674-1.525513.86-2.24l.34-.51l1.89-3.44.86-1.55l2.07-2.92.86-1.21l1.55-1.89c.604633-.664993,1.297784-1.243741,2.06-1.72l1-.52l2.24-2.06c.358146-.380573.761082-.716353,1.2-1l1.21-.69l2.58-1.38c.547004-.248684,1.12585-.420318,1.72-.51l1.2-.35l3.27-.86l1.89-.68l3.61-.52h.35c1.032354-.11315,2.07629-.055717,3.09.17l.35.17l1.89-.51l2.06.34l4.47.35l5.16,1.2c.911613.098832,1.791411.392098,2.58.86l2.24,1.38l1.38,1.2l2.23,1.55c.765668.475615,1.462208,1.054383,2.07,1.72l.51.69l2.75,2.92l1.55,1.55l1.55,1.89c.732702.80679,1.315206,1.738119,1.72,2.75l.86,2.24.69,2.06.51,1.89c.328281,1.116796.389934,2.295041.18,3.44v.35l.51,2.06v1.21c0,.51-.17,1-.17,1.54v1.21l-.34,1.89c-.22339,1.14839-.632058,2.252806-1.21,3.27l-.17.34-1.55,4.13-.69,1.72-2.21,4.42-.35.69c-.36936.783374-.89317,1.484055-1.54,2.06L533.69,226l-1.2.86-2.93,2.75-.86.52c-.445583.427586-.968127.7669-1.54,1l-2.58,1.37-1.58,1.23-2.07,1-.51,2.24l1.72,1.72l3.27,4.12l3.09,3.1l1.21,1.2l2.75,1.9l1,1l.69.69l2.75,2.4c.34.35.69.86,1,1.21l.69.86l1.55-.86l1-1.21.86-2.06.52-2.92c.122761-.665849.352392-1.307464.68-1.9l.69-1.37v-7.4l.35-1.37.68-1c.897525-.64706,1.973593-.999926,3.08-1.01Zm-24.25,35.09l-2.93-2.41c-.37454-.289409-.710591-.62546-1-1l-1-1.38-2.07-1.54c-.552929-.475759-1.06783-.994003-1.54-1.55l-.52-.69-2.41-3.44-1.72-1.72-2.75-2.92-1.55-1.38-3.44-3.27-1.2-1.2h-3.61l-2.07.69-3.27,3.44-2.67,2.89-1,1.55-.34,4.13-.17,2.23.17,2.24-.17,1.89.86,3.78.86,1.55l2.58,2.75l2.06,1.72l3.61,1.72l2.24.69l4.13.69l2.06-.34l1-.18c.840509-.225436,1.717177-.283201,2.58-.17h.53l2.41-.34l3.78-.35l1.89-1l4-1.2l1.72-1.21.17-2.75ZM499.64,214l2.92,3.78.86,1.21l1.89,1.55l2.93.17l4.81-3.79l1.72-1.37l3.44-2.75l1.38-1.72.86-3.62-.35-2.06.18-1.89v-4.13l-1.9-3.78-.68-1.6-3.27-1.89-4,.17h-2.41c-.95611.22557-1.944173.283094-2.92.17h-.69l-3.27,1.38-1.2,1.54-2.24,2.93.35,2.41-.35,2.23v1.89l.18,2.07v1.72l.86,3.44Z" transform="translate(-519.494598,-297.179997)" fill="#d1ca52"/></g><g id="ePft7nFkxRU21_ts" transform="translate(445.771875,126.4) scale(1,0)"><path d="M626.74,297l-.86.18h-1.37l-3.62-.18-1.54-.17-3.79.17h-1.89l-1.72.18-3.27-.18c-.522449.027127-1.045851-.030278-1.55-.17l-2.06-.51h-4c-.663553-.03347-1.31188-.210907-1.9-.52-1.118531-.472041-2.03293-1.326188-2.58-2.41-.429064-.970152-.604556-2.033426-.51-3.09v-2.24l.17-2.06.17-4.48L596,280l-.35-2.93c-.113179-.919314-.055545-1.851626.17-2.75l.18-1.2v-3.79l.34-2.41-.17-4.47-.17-4.3.17-2.06L596,254l.34-3.26-.17-2.41-.52-3.61.17-2.24.18-4-.18-2.23-.17-2.24c-.028451-.803762.028535-1.608273.17-2.4l.18-.87-.18-4.3.35-1.89.51-4l.18-1.89.17-4.3-.17-2.07-.35-3.09c-.027963-.694351.029128-1.389515.17-2.07l.18-1.2-.35-3.44v-1.38l.17-1.2-.34-2.24c-.170278-1.08335-.170278-2.18665,0-3.27l.17-.17-.17-4-.17-2.07v-3.09c-.020392-.578352.036783-1.15683.17-1.72l.17-1.55.69-4v-1.37c.914983-1.196393,1.954113-2.292507,3.1-3.27.797223-.567763,1.779172-.814143,2.75-.69l2.75.34l2.58-.51l4.3.17h1.89l4.64-.17l2.07-.17l3.61.17h2.07l3.26-.17c.578577-.028366,1.15817.028919,1.72.17l1.21.17l2.06.34.86-.34c.839525-.231328,1.717381-.289171,2.58-.17l.86.17l4.3.52l1.89.51l4.3.17h1.89l1.72.18c1.234117.195758,2.409194.663739,3.44,1.37l.18.17h1.89l4.3,1.9l4.13,1.54l1.89.86l4,1.38l1.72.86.52.52l2.75,1.72c.59446.360269,1.119447.824289,1.55,1.37l.34.52l2.93,2.06l2.06,1.72l1.89,1.72c.52.52,1.21.86,1.55,1.38l.86,1.2l2.41,2.24c.333115.29039.622746.627169.86,1l1,1.38l1.55,1.89c.518542.705471.980004,1.451168,1.38,2.23l.34.69l1.89,3.44.69,1.72c.154528.258338.214613.562297.17.86l1,3.27.35,2.06l1,3.79.69,1.72.69,2.92c.132278.563326.189441,1.141678.17,1.72v1.2l.51,3.79v1.94l-.17,1l.35,1.72-.18,2.41.52,2.23-.17,4v1c-.014326.703449-.13226,1.400945-.35,2.07L703.8,248c-.19065.802521-.529823,1.562268-1,2.24l-.18.17-1.54,4.3-.35,1.89-1.55,3.79-.34,1.2-1.55,3.27-1.2,2.06-.69,1.21-2.4,4.13-2.62,3.74-1,1.2c-.17.35-.34.35-.69.69l-2.75,2.58-1.72,1.38-2.75,1.72c-.538389.351795-1.11553.640366-1.72.86l-.86.34-3.44,1.72-1.89,1-2.93,1.55c-.51.17-1,.52-1.55.69l-.34.17-4.3,1.89-2.06.86-2.76.86c-.773883.277313-1.580737.452131-2.4.52h-1l-1.72.17-2.06.69-.52.17c-.828206.335661-1.694806.567426-2.58.69l-2.4.17-2.58-.17-1.55.34-2.58.18-1.2.17c-.35,0-1.21-.17-1.55-.17l-1.21-.18h-2.06c-.997564.343189-2.045054.518897-3.1.52h-2.75Zm-.34-102h-1l-2.24,2.75-.69,2.07v3.78l.18,2.24.17,3.61.34,1.89v.52c.02813.976422-.028751,1.953439-.17,2.92l-.17.69.51,2.06v3.27c-.014325.643851-.129039,1.281523-.34,1.89l-.17.69-.35,4.13-.17,2.23.17,3.44c.09037.569772.09037,1.150228,0,1.72l-.34,1.55.17,4l.17,5l.35,1.38.17,4.3v2.06l.51,3.62c0,.51.18.86.18,1.2v.86l-.52,2.41.52,1.72v6.36l-.18,1.38v2.23l2.24,1.38l5.85.52c1.354401-.350157,2.775599-.350157,4.13,0l2.4-.52l1.9.17l4-.51l2.07-.86l4.47-.52l4.47-1.2l1.72-1l3.61-1.72l1-1.2l3.27-2.92l2.07-1.55l1.89-2.24c.476268-.500432.994861-.958802,1.55-1.37l.86-.52l1.89-4.13l1.89-4.47.52-1.38l1-4l.51-2.07-.17-3.44.17-2.4.35-2.41-.52-1.89.17-2.07L677,226l-.86-4.47-.35-2.58-1.55-3.61-.86-1.72-2.4-2.76-1.55-1.72-3.1-2.92-1-1.2-2.92-2.76-1.38-.68-3.78-2.07-1.72-1-4.48-1.2-2.23-.86-4.53-1.45-4.3-.52-2.58.18-2.07-.18-3.61-.17-3.61.69c-.57018.085039-1.14982.085039-1.72,0Z" transform="translate(-650.211875,-297.179997)" fill="#d1ca52"/></g><g id="ePft7nFkxRU22_ts" transform="translate(96.352651,553.054963) scale(1,0)"><path d="M356.34,729.93L355,732.74c-.206054.394963-.500331.737145-.86,1l-.52.73-1.72,3.26-1.2,1.48-1.21,3.7-.86,1.47-1.72,3.26-1,1.48-1.2,3.1-.86,1.48-2.41,3.85-1.55,3.7-1.2,1.92-1,3.11-.69,1.62-1.72,3.7-.69,1.19-2.06,3.1-1.55,1.92-1.98,3.3-1.21,2.07-2.06,3.25-1.55,4.15-.69,1.92-1.72,3.4-.86,1.78-1.37,2.32c-.200281.352891-.431168.68751-.69,1l-.69.89-1.72,3.1-1.2,1.63-1.55,3.55-.69,1.33-1,2.66c-.189257.499227-.482392.952563-.86,1.33l-.86,1.19-.86,1.77c-.330669.801314-.812811,1.531318-1.42,2.15l-1.71,3.4-1,1.47-.86,2.08c-.190008.543503-.481885,1.045802-.86,1.48-.766132,1.142147-2.065297,1.810613-3.44,1.77l-1-1.48v0l-1.72-2.51c-.200821-.384079-.374577-.781713-.52-1.19l-.69-1.33-1.54-3.4-1.44-1.89-1.2-2.52c-.203061-.431128-.376789-.875472-.52-1.33l-.34-1.18-1.72-3-.69-1.33c0-.15-.17-.3-.17-.45l-.86-2.66-1.21-1-1.72-3.26-.51-.74c-.465858-.651499-.870893-1.34441-1.21-2.07l-1-2.51-1.55-1.63-1.2-2.52c-.17-.59-.35-1.18-.52-1.62l-.17-1-1.38-2.81-.86-1.33-1.72-3.11-1-1.62-1.95-3.31-1.2-1.77-1.72-3.7-.52-1.33-2.06-4-2.07-3.7-.51-.89c-.264405-.424619-.495112-.869315-.69-1.33L261.74,758l-.86-1.48-1.37-3.25-1.51-1.89-1.89-2.81-.86-1.33-1.25-2.37c-.17-.45-.34-1-.51-1.48l-.34-.89-1.9-3-.86-1.92-1.55-2.81-.68-1.77-1.72-3.55c-.624554-.794822-1.092816-1.700807-1.38-2.67v-.15l1.21-1.77l1.71.15h.35l3.27.15c.520596-.022574,1.041874.024509,1.55.14l1.54.45l3.44-.15c1.280148.100158,2.517841.504723,3.61,1.18l.86.45.86,2.07l1.55,3c.722575.723969,1.305634,1.574828,1.72,2.51l.52,1.48l1.2,1.63l1.55,2.81l1.2,1.77l1.9,3.55.68,1.19c.216907.185429.344262.454693.35.74l.69,2.66l1.2,1.48l1.72,3.4.69,1.77.51,1.33.69,1.78c.93678.815998,1.597166,1.902665,1.89,3.11l.35,1.62.86,1.33l2.06,3.26.69,1.18c.133978.325954.247531.659933.34,1l1.21,3l1.37,1.48l1.38,3l.52,1.63l1.72,2.81c.141855.346954.312449.681451.51,1l.17.59l1.55,2.66c.17.44.35.89.52,1.48l.34,1.18l1.21,3.26l1,1.33l2.23,3.7l1.21,1.62l2.06-.29.52-2.07l1.37-2.81c.148671-.345589.32247-.679817.52-1l.69-.89l1.37-3.25.86-1.48.86-2.51c.18-.3.35-.89.52-1.19l.52-.88l2.06-3l.86-1.93l1-1.77c.389811-.82387.981451-1.535902,1.72-2.07l.35-.45l1.54-3.25.69-1.92l1-3.11.35-.89c.18281-.58904.474524-1.138548.86-1.62l1.37-2.22.86-1.48.86-2.22.86-1.18l1-2.07l1.89-2.67l1-1.33l1.2-3.4l1.21-1.92l1.72-3.41.51-1.47l1.72-2.67.52-1.48l1.72-3.25.52-1.18l1.89-3.55c.893377-1.175581,2.079524-2.096224,3.44-2.67l.34-.14l1.55-.15c.52,0,1.38-.15,1.89-.15l1,.15l2.24-.3l2.24-.15c1.347905.032539,2.681723.282419,3.95.74l.35,1c.25716.92875.260613,1.909462.01,2.84Z" transform="translate(-300.79264,-723.834963)" fill="#d1ca52"/></g><g id="ePft7nFkxRU23_ts" transform="translate(200.21754,553.054963) scale(1,0)"><path d="M350.5,827.7l1.2-3l.17-.89c.129209-.627636.362422-1.22926.69-1.78l.69-1.33c.36454-.655879.826461-1.252668,1.37-1.77l.52-.45.69-2.07c.383035-.958071.905326-1.854388,1.55-2.66v-.15l1.54-3.55v-.05c.234083-.908194.645289-1.761192,1.21-2.51l1.37-1.78.69-1.62l1.72-3.26.86-1.77l1.72-2.67l1-1.77.69-1.33l1.21-2.66.34-.89c.181912-.514358.412981-1.009983.69-1.48l1.72-2.22.68-1.63l1.9-3.55.34-1.62l1-2.22c.35-.45.86-1,1.21-1.48l.69-.74l1.54-3.11.69-1.33l1.38-2.81v-.15c.101266-.957383.445487-1.873011,1-2.66l1.72-3.11l1.2-1.92l1.9-2.51.34-1.78.86-1.92c.344451-1.015304.935441-1.929277,1.72-2.66l.17-.15l1.89-4.14l1.21-3c.17-.3.51-.74.68-1l.86-1.48l1.38-3.4.52-1c.19381-.35453.421542-.68943.68-1l2.24-3l.86-1.92l2.24-3c.34-.74,1.37-1.18,2.92-1.33l.52,1.18c.17.59.51.74.86,1.19l1.37,1.62c.326604.38613.562397.840629.69,1.33l.52,1l1.37,3.55l1,1.77l1.72,3.26.35,1l2.06,2.82c.264616.372042.495531.766939.69,1.18l.69,1.33l1.55,3l.68,1.77l1.55,3.11.69,1.63l1.55,3.1l1.2,1l1.21,1.63c.646513.882845,1.059306,1.914827,1.2,3v.11l1,1.19l1.55,3.4.52,1.18l1.5,3.13.86,1.92l1.55,2.81l1,2.07l1.89,3l1,1.77l1.37,2.07c.273273.471979.504177.96725.69,1.48l.52,1.19l1.2,3.1.52,1.63l2.23,3.85l1.38,2.81c.141205.347252.311825.681803.51,1l.52,1.63l2.24,3.7l1.54,1.62l1.38,2.22c.33144.622434.618812,1.26735.86,1.93l.17.74l1.55,3.55l2.06,3.25l1,1.92l1.54,4c0,0-.17.59-.34,1.33-.86,1.92-3.27,2.51-5.5,2.36h-1.55l-4-.29c-1.647544.051596-3.269963-.41345-4.64-1.33l-.35-.15-.51-1.48-1.72-3.11-1-1.92-.86-1.77c-.441064-.779129-.732731-1.633782-.86-2.52l-1.21-1.92c-.276924-.622153-.50755-1.263896-.69-1.92l-.17-.89-1.41-2.55c-.378716-.697453-.667676-1.440015-.86-2.21v-.45L431,808.18l-2.58.29-3.44.15c-.52,0-.86-.15-1.38-.15l-1.89-.14-3.44.29c-.690073.024779-1.380795-.025517-2.06-.15h-.86l-2.41.3c-.744784.074989-1.495216.074989-2.24,0h-.7l-4-.15-2.58-.44-2.92.15c-.698692-.026249-1.392603-.126816-2.07-.3l-.69-.15h-10l-2.07-.15-3.78.15-2.06.15L377,810l-1.2,1.33-1.38,2.52c-.34.44-.86,1-1.2,1.48l-.35.44-.85,2.52c-.18.59-.35,1-.52,1.48l-.69,1-.86,2.37c-.197276.380975-.367691.775268-.51,1.18l-.52,1-1.92,3.27c-.57188,1.245301-1.461742,2.317964-2.58,3.11l-.52.29h-2.06l-4-.29-1.37-.15h-3.79c-1.55-.15-2.58-.59-2.92-1.18-.111663-.952501.153953-1.910872.74-2.67Zm37.66-31.21l4.3.45l2.24-.3l1.72-.3c1.091839-.094725,2.191418-.044285,3.27.15l.86.15l1.54-.3l2.24.15l1.89-.29l4.47-.15l4.65.29l1.89-.14l4.82.44l2.4-.3.86-1.62-.68-2.22-1.9-3.4-.51-1-1.55-2.81c-.328851-.495972-.562811-1.048662-.69-1.63v-.74l-1.89-3.1-.86-1.63-1.89-2.66c-.17-.3-.52-.74-.69-1l-1.2-3.1-2.07-4.29-.69-1.48L409,762l-.86-1.33-1.54-3.41-1-1.92-1.89-.29-1,1.62-1.65,3.33-.17,1.92L400,764c-.481249.897956-1.12165,1.700998-1.89,2.37l-.17.29-1.38,3.26-.86,1.48-1.72,3.4-1.55,3.55-.86,2.07-1.2,3-.69,1.63-1.38,2.21c-.40439.539272-.863502,1.035247-1.37,1.48l-.52.59-1,3.41-.69,1.62l1.38,2.52Z" transform="translate(-404.657538,-723.834963)" fill="#d1ca52"/></g><g id="ePft7nFkxRU24_ts" transform="translate(320.765,555.64) scale(1,0)"><path d="M513.55,790.28h-1.38l-1-.15-3.27.3c-.577222.017284-1.154484-.033059-1.72-.15l-1.37-.15-2.58,2.07-.18,2.22v1.63c.098391,1.046885-.139829,2.097855-.68,3l.51,3.7.35,1.33v2.51c.056207.855072-.062895,1.712611-.35,2.52v3.69l.17,1.48v4l.18,3.1c.006597.867299-.170627,1.726155-.52,2.52v.1l.17,3.69c-.360892,1.231924-.943793,2.38756-1.72,3.41l-.34.44-1.89.15-2.41.14h-3.82l-2.06.15h-.86c-1.125731-.202145-2.152654-.771876-2.92-1.62-.567114-.93203-.809735-2.025582-.69-3.11l.17-.15v-3.1l-.34-1.48.17-3.26.17-1.48.17-3.7.17-1.77.35-3.85-.17-2.22-.52-3.54-.17-2.08v-2.07c.07268-.710399.244343-1.407146.51-2.07l.18-.44-.18-3.4v-1.48l.18-3.55-.18-2.07v-3.41l-.17-1.62-.34-3.11v-1l.17-1.34.17-3.4-.51-1.48.17-3.1-.17-.6c-.11803-.73978-.059784-1.496974.17-2.21l.17-.15-.34-3.85.17-3.7-.35-1.92.18-3.4v-7.1l.51-3.7-.51-1.77v-4.29l.51-1.63-.34-3.25v-.51c.63634-1.931667,2.436242-3.240321,4.47-3.25l.69-.3c.720345-.227732,1.475368-.325919,2.23-.29h1.38c.870135-.047204,1.742057.050803,2.58.29l.86.15h3.62l1.89.3l3.62-.6l1-.29c.674008-.173154,1.364602-.273726,2.06-.3h1.72c.521187-.024591,1.0432.025926,1.55.15h1l2.24.3l4.12.29h1.8l1.55-.15c.693389-.024716,1.387418.025576,2.07.15l1,.15l4.3.3l2.75.29l2.58.3c.602727.094535,1.190852.265932,1.75.51l1.38.45l3.78,1.18l4.82,2.07h.34c.958672.283195,1.864132.72241,2.68,1.3l1.89,1.33l1.55,1.33l2.93,2.07l1.2.89l1.55,1.33c.62822.655508,1.151088,1.40439,1.55,2.22l.17.3l1,3.55.17.44c.33227.704253.564515,1.451476.69,2.22l.34,2.81.52,3.7.17.44c.362216.889467.482958,1.858856.35,2.81v.45l.51,1.62v2.07l-.34,3h-.17c-.070949.827868-.305478,1.633426-.69,2.37l-1.21,2.37-.17.44c-.151595.604518-.446582,1.163622-.86,1.63l-1.37,2.22-.35.29c-.324366.768978-.788933,1.470916-1.37,2.07l-1.72,1.78-.86,1.48-2.24,2.66-.24.11c-.69175.768742-1.506115,1.417531-2.41,1.92l-1.38.59-1.89.59-3.61,1.48-1.21.45c-.590703.337178-1.227394.586465-1.89.74l-2.75.59-2.06.29-2.8,1.19c-.554258.213097-1.131498.360763-1.72.44l-.68.15-4.3.15h-1.89l-2.41-.15h-.69c-.633719.025093-1.268173-.02526-1.89-.15l-1.21-.3-4,.3Zm-2.07-52.95l-4-.15h-3.79L502,738.66l.35,1.77v3c-.030323.607094-.148207,1.206622-.35,1.78l-.17,1l.17,4.29v3.4c.028351.548865-.029004,1.098797-.17,1.63l-.34,1-.17,3.11.51,2.07v3.29l.35,4l.17,1.77-.17,4.15-.35,1.77l2.07,1.63l2.23.15h5.68l6-.15l3.95-.15h.35c.967554-.15,1.952446-.15,2.92,0l.69.15l1.72-.15l2.06.3l5.2-1.47l3.44-1.63l2.07-1.18l3.44-2.52l1.54-1.62l2.07-3.11.69-1.63.17-3l.17-2.07-.17-1.33v-.44c-.259896-1.020377-.259896-2.089623,0-3.11h.17l-.69-3.7-.17-1.62-1.38-2.22c-.17-.45-.34-.45-.51-.89l-.52-1.33-2.58-2.52-1.37-1-3.1-1.92-2.41-.45-4.13-1.18-4.81-.59h-2.07l-2.4-.15h-2.41l-6-.3Z" transform="translate(-525.204999,-726.419999)" fill="#d1ca52"/></g><g id="ePft7nFkxRU25_ts" transform="translate(428.969812,553.054963) scale(1,0)"><path d="M669,832.14l-4.3-.44-1.89-.3-2.92.15c-.693389.024716-1.387418-.025576-2.07-.15l-1.55-.15-4.3.3-3.78.59c-.564431.124194-1.142592.174615-1.72.15l-2.41-.15c-.639415-.027239-1.273579-.1279-1.89-.3l-1-.14-1.55.14-4.13.15-2.06.3-4-.3-6-.15h-2.06l-3.27.3c-.577233.017653-1.154537-.032693-1.72-.15l-1.72-.15-4-.44h-1.66l-4.47.15-2.92.29c-.805053.103521-1.622349.056043-2.41-.14l-1.2-.15c-.912991-.780769-1.722839-1.674626-2.41-2.66-.288098-.546224-.406491-1.166046-.34-1.78l-.18-2.66-.34-2.07v-3.26c0-.29.17-.74.17-1.18l.17-1.18-.34-3.26-.17-1.62.17-3.11.34-1.77-.17-4.15v-1.77l-.17-1.92c-.198636-.888038-.139659-1.814325.17-2.67v-.15l-.17-3.4.17-2.22.17-3.4v-1.32l-.51-3.85v-1.62l-.35-3.11v-2.52l.35-4-.52-4.44-.17-1.62.34-3.55.17-1.92.52-3.85.35-1.48-.52-3.4v-1.93l-.17-3.54-.18-1.34L594,740l-.17-1.78v-3.4l.17-1.48.17-1.92c.084845-.939679.378676-1.848506.86-2.66v-.45L594.9,727c1.89-1.33,3.61-1.92,4.82-1.77h4.12l1.55-.15l6.88.15l5-.15l4.47.29l1.55-.29c.796345-.130033,1.603677-.180281,2.41-.15l2.75.15l2.06.29l4,.15l2.24-.29l3.78.14l1.89-.14h5c.689729-.029527,1.380608.017426,2.06.14l.35.15l4,.15l1.9-.15h3.26c.465073-.024539.93106.026111,1.38.15l1.38.15l3.26-.59c.564498-.12375,1.142602-.174166,1.72-.15h1.21c1.55,1,2.58,2.07,2.58,3.1l.34,1.19v1.48l-.34,3c0,0-1.21,1.33-2.24,2.36s-2.75,1-4.13,1h-2.15l-.52.15c-.911782.116427-1.831108.163229-2.75.14l-3.09-.14-4.82-.6h-2.06l-3.27.3h-1.55l-1.38-.15h-4.12l-1.72.59h-5.85l-4.47-.29h-6.9l-4.3.15-2.41.59-1.38,1.77v2.07l.17,3c.027672.499404-.029815.999877-.17,1.48l-.34,1.48v3.25l-.17,2l.51,3v1.33l-.17,1.33.17,3.26.35,2.07-.18,3v1.63l-.17,2.07l1.89,1.18l2.24-.3h3.27c.639486.026527,1.273731.127201,1.89.3l1.2.3l3.44-.15l1.72-.45l2.24-.14h2.58c.576885-.023045,1.154436.023965,1.72.14l1.72.3l2.06-.15l1.9.3l4.47.15l2.23-.15l2.93-.15c.690073-.024779,1.380795.025517,2.06.15l1.21.29l4.64-.44c1.07688.566861,2.112747,1.208429,3.1,1.92c1.209845,1.004189,1.685289,2.644468,1.2,4.14l-.34,1.93c-.19644,1.298776-.730984,2.523053-1.55,3.55l-.17.15-2.24.14-4.3.3-.17.15c-1.014876.240011-2.058217.337614-3.1.29h-2.25c-.527789-.022807-1.049666-.120448-1.55-.29l-1.38-.15-4-.44-1.72.14-2.58.15c-.637024.024666-1.274738-.02568-1.9-.15l-1.37-.14h-3.44l-2.24.29-4.3.3-2.58.15-4.13-.15h-2.4l-2,1.85.17,1.92-.51,3-.17,1.78.34,3.25.17,1.33.35,2.37c.157228,1.013242.036254,2.050164-.35,3l-.17.44.17,3.25v1.34l-.51,3.1v2.22l.86,3.4.34,1.63l1.89,1.63l2.24.44l4.3.3l1.89-.3h2.75c.810828.025956,1.617554.126378,2.41.3l.69.29l3.09-.29c.52,0,1.21-.15,1.72-.15l1,.15l3.61-.3l2.06-.29h4l2.58-.15l3.27-.15c.751364.026736,1.498284.127219,2.23.3l1,.29l7.4-.59c1.360952-.113177,2.729682.088711,4,.59l3.26-.29c.35,0,.86.14,1.21.14h1.37c1.301066.470735,2.230776,1.628052,2.41,3l.17,1.93.18,3.25c.34,1.33.17,2.22-.69,2.81-.966351.584829-2.029912.991285-3.14,1.2Z" transform="translate(-633.409812,-723.834963)" fill="#d1ca52"/></g><g id="ePft7nFkxRU26_ts" transform="translate(528.4621,555.64) scale(1,0)"><path d="M720.63,833.18c-.51-.15-1-.15-1.38-.3l-2.58-.74-2.4-.15h-5c-.69-.15-1.2-.29-1.72-.44l-3.27-1-2.41-.88-3.26-1c-1-.15-1.72-.74-2.76-1.92-.493748-.60031-.836634-1.310084-1-2.07l-.17-.59.17-1.63.35-3.55-.2-1.71c.002421-.044377.023191-.085748.057333-.1142s.078581-.041421.122667-.0358c1.72-1.77,4.81-1.77,7.39-.74l2.07.74l2.92.74c.34.15,1,.3,1.38.45l1.2.44l5.5,1.48h3.79l2.4.3l4,.14l2.41.3h2.06l2.75-.44l3.79-.15l1.37-.45h2.24l2.92-.88c.44163-.171056.907212-.27227,1.38-.3l1.21-.15l2.06-1.48c.34-.29.69-.29,1.2-.59L750,816l2.93-2.66l1.2-1.19l1-3.1.35-1.93v-.74c-.035292-.595243.022058-1.192356.17-1.77l.34-.89v-1.48l-1.37-3.4-2.41-2.81L751,794.7l-2.58-2.52L746.6,791l-3.27-1.78-1.37-.88-3.61-1.34-1.72-.15-3.79-1.33-.86-.15c-.961619-.133745-1.892362-.434967-2.75-.89l-.69-.44-1.72-.74-2.06-.74-4-1.18h-.86c-.762926-.183149-1.508935-.430704-2.23-.74l-2.07-.89-5-2.66c-.35-.3-.87-.45-1.21-.74l-1-.89-2.92-2.07-1.38-.74-2.06-1.78c-.552305-.398402-1.021147-.901217-1.38-1.48l-.69-1-2.23-3.11-.69-.74-.52-.89-1.2-2.95c-.813418-.887056-1.247678-2.057047-1.21-3.26v-3.84l.69-2.81-.17-1c-.06504-.851285.050833-1.706696.34-2.51l.69-1.63c-.143059-1.099051-.023102-2.216365.35-3.26l.34-.88c.181912-.514358.412981-1.009983.69-1.48l.51-.74l4.13-4.44l2.93-2.81c.481347-.380181.996883-.714945,1.54-1l2.76-1.47l1.54-.89l2.93-1.33c.547426-.267704,1.124842-.469128,1.72-.6l1-.14l2.24-.74c.973762-.414664,2.038417-.569711,3.09-.45l4-.59.86-.29c.669162-.221181,1.359561-.371997,2.06-.45l3.27-.15h-.17c1.316067-.165053,2.650241-.114388,3.95.15h1.89l.52-.15c1.028589-.140037,2.071411-.140037,3.1,0l2.58.3l1.89.3l4.3.44h1.2c.583807.026005,1.161862.126829,1.72.3l2.93.59l2.23.88l3.44.75c.52.14,1,.44,1.55.59l.86.44c1.019277.895106,1.738478,2.082137,2.06,3.4v.74c.18163.678047.18163,1.391953,0,2.07l-.17,2.22v.04c.194226.935118.135543,1.905117-.17,2.81v.19l-2.06,1.33h-.18c-.834183-.596796-1.764244-1.046607-2.75-1.33l-2.34-.9-2.23-.15-6.19-1.62-3.79-.45-2.06-.29-3.44.14c-.749401.023414-1.499347-.023458-2.24-.14l-.86-.3h-1.89l-2.75.3h-3.79l-2.06.44-3.61,1-2.24,1-3.61,1.63-1.2,1-3.1,2.37-.69,1.33-1.54,3.25.17,2.22v.74c-.014684.60891-.133045,1.210863-.35,1.78l-.17.89.86,3.55l1.21,1.48l2.06,2.36l1.2,1l3.44,2.22l2.93,1.47c.743208.353058,1.435987.803701,2.06,1.34l.52.44l4.47,1.63l5.67,1.92c.544858.182665,1.065376.43117,1.55.74l1.21.59l2.23.74l1.9.44l4,1.63h2.06l3.44,1.33l1.55.89c.17,0,.35.3.52.3l2.06,1.33c.785652.409428,1.487738.962278,2.07,1.63l.34.29l3.78,1.78.18.14c.895517.452349,1.707189,1.054339,2.4,1.78l.52.59c.756414.753904,1.342861,1.66085,1.72,2.66l1.89,2.52.69,1.33c.17.15.17.59.34.74l1.38,3c.661917,1.009649,1.009891,2.192761,1,3.4v5.32l-.17,2.22c.341824,1.059786.341824,2.200214,0,3.26l-.52,1.92-1.54,3.85c-.310328,1.093797-.837443,2.114021-1.55,3l-1,1.34-.69.88c-.30978.606905-.718738,1.157815-1.21,1.63l-2.58,2.22c-.683641.53652-1.433044.983474-2.23,1.33l-2.41,1.18-1.38.74-5.33,2.37-4.13,1.48-1.2.29c-.500148.171793-1.021871.272772-1.55.3l-3.27.44h-2.58l-4.29.15-1,.15c-.684619.074987-1.375381.074987-2.06,0h-2.92l-2.24.15-3.61-.3Z" transform="translate(-732.9021,-726.419998)" fill="#d1ca52"/></g></svg>